<svg width="393" height="260" viewBox="0 0 393 260" fill="none" xmlns="http://www.w3.org/2000/svg">
<path d="M336.107 130C336.107 201.797 273.401 260 196.049 260C118.697 260 55.9903 201.797 55.9903 130C55.9903 58.203 118.697 0 196.049 0C273.401 0 336.107 58.203 336.107 130Z" fill="#A3C6C4"/>
<path d="M46.3947 225.618L22.8916 233.578L19.3385 226.435C19.783 225.139 21.1218 223.573 23.3548 221.737L8.74016 180.734C5.88134 180.72 3.82952 180.286 2.5847 179.431L0.829102 171.679L21.3662 164.723C27.9573 162.491 34.0965 161.77 39.7839 162.56C45.4609 163.321 50.4458 165.626 54.7386 169.475C59.0509 173.283 62.4458 178.663 64.9232 185.614C67.4006 192.565 68.247 198.66 67.4624 203.901C66.6779 209.142 64.4785 213.569 60.8643 217.182C57.2397 220.766 52.4165 223.578 46.3947 225.618ZM25.8817 174.142L21.7473 175.543L36.846 217.904L43.4521 215.666C46.5379 214.621 48.9863 213.154 50.7973 211.264C52.5979 209.345 53.5822 206.737 53.75 203.439C53.9478 200.132 53.1203 195.879 51.2674 190.681C45.9379 175.728 37.476 170.215 25.8817 174.142Z" fill="black"/>
<path d="M61.7244 159.401L59.9688 151.649L80.8654 144.571C88.0856 142.126 93.5093 140.764 97.1367 140.484C100.715 140.254 103.421 140.5 105.256 141.22C109.338 142.783 112.353 146.295 114.299 151.756C115.746 155.816 114.873 160.432 111.681 165.604C118.402 166.47 123.127 170.729 125.854 178.38C127.988 184.367 127.553 189.506 124.549 193.796C121.565 198.047 116.141 201.668 108.276 204.659L82.0313 213.548L78.4781 206.405C78.9227 205.109 80.2615 203.543 82.4945 201.706L67.8798 160.703C65.021 160.69 62.9692 160.255 61.7244 159.401ZM85.6505 153.899L80.887 155.512L86.4143 171.02L93.9191 168.478C97.0649 167.413 99.1858 165.827 100.282 163.721C101.408 161.605 101.57 159.423 100.769 157.174C99.9671 154.925 98.7791 153.429 97.2048 152.686C95.6304 151.943 94.0226 151.718 92.3815 152.012C90.7703 152.296 88.5266 152.925 85.6505 153.899ZM98.0908 178.062L89.9119 180.833L95.9857 197.873L102.322 195.727C106.486 194.317 109.419 192.653 111.119 190.735C112.839 188.778 113.147 186.251 112.044 183.156C110.93 180.031 109.295 178.081 107.138 177.306C104.971 176.501 101.956 176.753 98.0908 178.062Z" fill="black"/>
<path d="M142.435 132.064L140.679 124.313L161.576 117.235C168.796 114.79 174.22 113.427 177.847 113.148C181.425 112.918 184.131 113.163 185.966 113.884C190.049 115.447 193.063 118.959 195.01 124.42C196.457 128.48 195.584 133.096 192.391 138.268C199.113 139.134 203.837 143.392 206.564 151.044C208.698 157.031 208.263 162.169 205.26 166.46C202.276 170.711 196.851 174.332 188.986 177.323L162.742 186.212L159.189 179.069C159.633 177.773 160.972 176.207 163.205 174.37L148.59 133.367C145.731 133.354 143.68 132.919 142.435 132.064ZM166.361 126.563L161.597 128.176L167.125 143.684L174.63 141.142C177.775 140.076 179.896 138.491 180.992 136.385C182.118 134.269 182.28 132.086 181.479 129.838C180.677 127.589 179.49 126.093 177.915 125.35C176.341 124.606 174.733 124.382 173.092 124.676C171.481 124.96 169.237 125.589 166.361 126.563ZM178.801 150.726L170.622 153.496L176.696 170.537L183.032 168.391C187.197 166.981 190.129 165.317 191.829 163.399C193.549 161.442 193.858 158.915 192.754 155.82C191.64 152.695 190.005 150.745 187.849 149.969C185.682 149.165 182.666 149.417 178.801 150.726Z" fill="black"/>
<path d="M215.582 156.139L214.897 98.6848L227.525 94.4078L264.3 139.934C267.199 139.966 269.371 140.409 270.817 141.261L272.572 149.013L251.047 156.303L247.449 149.176C247.864 147.988 249.03 146.595 250.945 144.997L245.743 138.314L227.363 144.54L227.602 152.559C230.061 152.676 232.018 153.126 233.473 153.909L235.183 161.676L214.197 168.784L210.644 161.641C211.293 159.883 212.939 158.049 215.582 156.139ZM226.29 110.585L225.654 109.083L224.351 109.524C225.642 113.145 226.392 117.653 226.603 123.048L226.973 135.393L240.141 130.933L232.732 121.168C229.825 117.44 227.678 113.912 226.29 110.585Z" fill="black"/>
<path d="M278.854 108.984L287.27 132.596C289.838 132.642 291.906 133.169 293.474 134.177L295.042 141.402L277.021 147.506L273.611 140.904C274.26 139.146 275.562 137.477 277.518 135.899L262.731 94.4136C259.902 94.3899 257.759 93.8883 256.302 92.9089L254.734 85.6831L273.698 79.26L304.447 107.876C305.583 108.899 306.768 110.15 308.001 111.631C309.253 113.073 310.579 114.718 311.977 116.569L313.371 118.502L314.28 117.802C311.516 112.781 309.526 108.562 308.308 105.145L300.017 81.8834C297.438 81.8077 295.36 81.2515 293.782 80.215L292.213 72.9891L310.234 66.8857L313.645 73.4875C313.006 75.2749 311.714 76.9726 309.769 78.5806L328.162 130.185L313.737 135.071L282.715 106.252C280.533 104.275 278.012 101.348 275.153 97.4724L273.79 95.6266L272.882 96.3271C275.645 101.348 277.636 105.567 278.854 108.984Z" fill="black"/>
<path d="M318.865 72.3085L317.109 64.5569L338.68 57.2511L342.233 64.3938C341.651 65.8676 340.332 67.4434 338.278 69.1212L352.892 110.124C355.592 110.257 357.624 110.682 358.987 111.398L360.743 119.15L339.172 126.456L335.619 119.313C336.063 118.017 337.402 116.451 339.635 114.614L325.021 73.6112C322.162 73.5976 320.11 73.1633 318.865 72.3085ZM391.118 100.516L392.829 108.282L377.55 113.457L345.64 88.082L353.905 62.9446C351.876 62.7154 350.391 62.3181 349.451 61.7528L347.758 54.1765L368.744 47.0685L372.28 54.0208C371.755 55.2788 370.49 56.7708 368.486 58.4968L359.401 83.0284L381.566 99.4308C385.782 98.9193 388.966 99.2809 391.118 100.516Z" fill="black"/>
</svg>
